<svg width="12" height="16" viewBox="0 0 12 16" fill="none" xmlns="http://www.w3.org/2000/svg">
<path d="M3.33334 4V2.66667C3.33334 2.31305 3.47382 1.97391 3.72387 1.72386C3.97392 1.47381 4.31305 1.33334 4.66668 1.33334H7.33334C7.68697 1.33334 8.0261 1.47381 8.27615 1.72386C8.5262 1.97391 8.66668 2.31305 8.66668 2.66667V4M10.6667 4V13.3333C10.6667 13.687 10.5262 14.0261 10.2762 14.2761C10.0261 14.5262 9.68697 14.6667 9.33334 14.6667H2.66668C2.31305 14.6667 1.97392 14.5262 1.72387 14.2761C1.47382 14.0261 1.33334 13.687 1.33334 13.3333V4H10.6667Z" stroke="#A0AEC0" stroke-width="1.5" stroke-linecap="round" stroke-linejoin="round"/>
</svg>
